<svg xmlns="http://www.w3.org/2000/svg" version="1.1" xmlns:xlink="http://www.w3.org/1999/xlink" width="1500" height="1500" viewBox="0 0 1500 1500"><rect width="1500" height="1500" x="0" y="0" id="background" stroke="transparent" fill="#ffffff"></rect><svg xml:space="preserve" width="1000" height="1000" data-version="2" data-id="lg_iL1EmvM6h5letHt3I6" viewBox="0 0 579 105" x="250" y="250"><rect width="100%" height="100%" fill="transparent"></rect><circle r="59.32" fill="#a61713" transform="translate(57.05 52.5)scale(.8699)"></circle><path fill="#a61713" d="M182.66 18.18v11.17h-24.63v50.44h-11.17V29.35H122.2V18.18z"></path><rect width="60.46" height="61.61" x="-30.23" y="-30.8" fill="none" rx="0" ry="0" transform="translate(152.93 49.48)"></rect><path fill="#a61713" d="M239.59 48.73q0 2.32-.82 5-.81 2.69-2.64 4.99-1.83 2.3-4.77 3.84-2.94 1.55-7.15 1.55h-20.16V53.5h20.16q2.27 0 3.52-1.4t1.25-3.46q0-2.19-1.4-3.44-1.4-1.24-3.37-1.24h-20.16q-2.27 0-3.52 1.39-1.25 1.4-1.25 3.46v15.6q0 2.24 1.4 3.48 1.4 1.25 3.46 1.25h20.07v10.65h-20.16q-2.32 0-5-.81-2.69-.82-4.99-2.64-2.3-1.83-3.84-4.77-1.55-2.95-1.55-7.16V48.73q0-2.32.82-5.01.81-2.68 2.64-4.98 1.83-2.3 4.77-3.85 2.94-1.55 7.15-1.55h20.16q2.32 0 5 .82 2.69.82 4.99 2.64 2.3 1.83 3.84 4.77 1.55 2.95 1.55 7.16"></path><rect width="50.92" height="46.45" x="-25.46" y="-23.23" fill="none" rx="0" ry="0" transform="translate(214.63 57.06)"></rect><path fill="#a61713" d="m275.38 54.44 26.3 25.35h-16.11l-22.52-21.74q-1.89-1.72-1.76-4.3.08-1.2.62-2.25t1.48-1.78l20.41-16.46h17.88zm-16.93-40.73v66.08h-11.17V13.71z"></path><rect width="54.4" height="66.08" x="-27.2" y="-33.04" fill="none" rx="0" ry="0" transform="translate(274.98 47.25)"></rect><path fill="#a61713" d="M358.48 48.99v15.12q0 2.88-.73 5.18t-1.93 4.04q-1.2 1.74-2.79 2.96-1.59 1.23-3.33 2t-3.53 1.14q-1.78.36-3.37.36h-20.15q-2.32 0-5.07-.81-2.75-.82-5.09-2.69-2.35-1.87-3.91-4.85-1.57-2.99-1.57-7.33V48.99q0-4.3 1.57-7.29 1.56-2.98 3.91-4.85 2.34-1.87 5.09-2.69 2.75-.82 5.07-.82h20.15q4.3 0 7.3 1.55 3.01 1.55 4.86 3.89 1.85 2.34 2.69 5.09.83 2.75.83 5.12m-11.17 15.12V49.07q0-2.32-1.16-3.44-1.16-1.11-3.35-1.11h-20.07q-2.23 0-3.39 1.14-1.16 1.13-1.16 3.33v15.12q0 2.19 1.16 3.35 1.16 1.16 3.39 1.16h20.07q2.28 0 3.39-1.16 1.12-1.16 1.12-3.35"></path><rect width="51.47" height="46.45" x="-25.73" y="-23.23" fill="none" rx="0" ry="0" transform="translate(333.25 57.06)"></rect><path fill="#a61713" d="M453.53 18.18v11.17h-24.62v50.44h-11.17V29.35h-24.67V18.18z"></path><rect width="60.46" height="61.61" x="-30.23" y="-30.8" fill="none" rx="0" ry="0" transform="translate(423.8 49.48)"></rect><path fill="#a61713" d="M510.46 48.73q0 2.32-.81 5-.82 2.69-2.64 4.99-1.83 2.3-4.77 3.84-2.95 1.55-7.16 1.55h-20.15V53.5h20.15q2.28 0 3.52-1.4 1.25-1.4 1.25-3.46 0-2.19-1.4-3.44-1.39-1.24-3.37-1.24h-20.15q-2.28 0-3.52 1.39-1.25 1.4-1.25 3.46v15.6q0 2.24 1.4 3.48 1.39 1.25 3.45 1.25h20.07v10.65h-20.15q-2.32 0-5.01-.81-2.68-.82-4.98-2.64-2.3-1.83-3.85-4.77-1.54-2.95-1.54-7.16V48.73q0-2.32.81-5.01.82-2.68 2.65-4.98 1.82-2.3 4.76-3.85 2.95-1.55 7.16-1.55h20.15q2.32 0 5.01.82 2.68.82 4.98 2.64 2.3 1.83 3.85 4.77 1.54 2.95 1.54 7.16"></path><rect width="50.91" height="46.45" x="-25.45" y="-23.23" fill="none" rx="0" ry="0" transform="translate(485.5 57.06)"></rect><path fill="#a61713" d="m546.26 54.44 26.29 25.35h-16.11l-22.52-21.74q-1.89-1.72-1.76-4.3.09-1.2.63-2.25.53-1.05 1.48-1.78l20.41-16.46h17.87zm-16.93-40.73v66.08h-11.17V13.71z"></path><rect width="54.39" height="66.08" x="-27.2" y="-33.04" fill="none" rx="0" ry="0" transform="translate(545.86 47.25)"></rect><path fill="#fff" d="M58 35.26v5.96H44.85v26.94h-5.96V41.22H25.71v-5.96z" paint-order="stroke"></path><rect width="32.29" height="32.9" x="-16.14" y="-16.45" fill="none" rx="0" ry="0" transform="translate(42.35 52.21)"></rect><path fill="#fff" d="M92.13 35.26v5.96H78.98v26.94h-5.97V41.22H59.84v-5.96z" paint-order="stroke"></path><rect width="32.29" height="32.9" x="-16.14" y="-16.45" fill="none" rx="0" ry="0" transform="translate(76.48 52.21)"></rect></svg></svg>